<?xml version="1.0" standalone="no"?>
<!DOCTYPE svg PUBLIC "-//W3C//DTD SVG 20010904//EN"
 "http://www.w3.org/TR/2001/REC-SVG-20010904/DTD/svg10.dtd">
<svg version="1.0" xmlns="http://www.w3.org/2000/svg"
 width="464.000000pt" height="167.000000pt" viewBox="0 0 464.000000 167.000000"
 preserveAspectRatio="xMidYMid meet">

<g transform="translate(0.000000,167.000000) scale(0.100000,-0.100000)"
fill="#000000" stroke="none">
<path d="M4105 1390 c-3 -6 1 -7 9 -4 18 7 21 14 7 14 -6 0 -13 -4 -16 -10z"/>
<path d="M4011 1377 c-9 -11 -5 -13 19 -12 33 2 48 11 35 23 -4 4 -10 1 -12
-5 -3 -7 -9 -13 -14 -13 -6 0 -7 5 -4 10 9 15 -11 12 -24 -3z"/>
<path d="M4156 1381 c-3 -5 2 -15 12 -22 15 -13 16 -12 4 3 -11 14 -10 17 5
21 16 4 16 5 1 6 -9 0 -19 -3 -22 -8z"/>
<path d="M3920 1330 l-25 -21 28 12 c15 7 27 16 27 21 0 11 -1 10 -30 -12z"/>
<path d="M4279 1341 c7 -5 11 -13 7 -19 -3 -5 5 -9 19 -9 l25 0 -24 18 c-13
11 -28 19 -33 19 -4 0 -2 -4 6 -9z"/>
<path d="M3880 1290 c-12 -7 -10 -9 7 -7 12 0 19 5 17 9 -6 10 -6 10 -24 -2z"/>
<path d="M3935 1290 c-16 -7 -17 -9 -3 -9 9 -1 20 4 23 9 7 11 7 11 -20 0z"/>
<path d="M4340 1269 c0 -5 5 -7 10 -4 6 3 10 8 10 11 0 2 -4 4 -10 4 -5 0 -10
-5 -10 -11z"/>
<path d="M3846 1255 c-9 -26 -7 -32 5 -12 6 10 9 21 6 23 -2 3 -7 -2 -11 -11z"/>
<path d="M3862 1232 c-11 -25 -11 -25 4 -10 9 9 15 21 13 27 -2 6 -10 -2 -17
-17z"/>
<path d="M4320 1250 c0 -5 5 -10 11 -10 5 0 7 5 4 10 -3 6 -8 10 -11 10 -2 0
-4 -4 -4 -10z"/>
<path d="M4369 1243 c-1 -4 -1 -12 0 -17 1 -4 -3 -13 -8 -20 -7 -9 -2 -12 20
-11 25 0 27 2 13 12 -9 6 -13 16 -10 22 4 5 2 12 -4 16 -5 3 -11 3 -11 -2z"/>
<path d="M4326 1203 c-6 -14 -5 -15 5 -6 7 7 10 15 7 18 -3 3 -9 -2 -12 -12z"/>
<path d="M3902 1185 c4 -5 2 -15 -5 -23 -9 -13 -9 -14 1 -8 6 4 12 2 12 -3 0
-6 8 -11 17 -11 15 0 14 2 -3 16 -16 13 -16 15 -1 10 24 -8 21 1 -5 15 -13 6
-20 8 -16 4z"/>
<path d="M3496 1155 c-197 -54 -344 -210 -391 -415 -32 -144 6 -314 99 -440
92 -123 269 -210 430 -210 152 0 278 52 386 160 292 292 153 801 -246 904 -74
19 -210 19 -278 1z m-86 -220 c0 -13 32 -15 225 -15 193 0 225 2 225 15 0 8 7
15 15 15 12 0 15 -16 15 -80 0 -72 -2 -80 -19 -80 -10 0 -24 7 -31 15 -9 11
-33 15 -85 15 -52 0 -76 -4 -85 -15 -7 -8 -23 -15 -35 -15 -12 0 -28 7 -35 15
-16 20 -158 22 -166 2 -2 -7 -16 -14 -29 -15 -25 -2 -25 -1 -25 78 0 64 3 80
15 80 8 0 15 -7 15 -15z m0 -165 c0 -13 436 -13 461 0 17 9 25 -2 74 -100 l55
-110 -365 0 -365 0 55 110 c33 66 61 110 70 110 8 0 15 -4 15 -10z m590 -320
c0 -64 -3 -80 -15 -80 -8 0 -15 9 -15 20 0 20 -7 20 -335 20 -328 0 -335 0
-335 -20 0 -11 -7 -20 -15 -20 -12 0 -15 16 -15 80 l0 79 365 1 365 0 0 -80z"/>
<path d="M4414 1097 c2 -26 0 -44 -5 -41 -15 9 -10 -13 5 -26 13 -10 15 -4 14
38 0 27 -4 55 -8 62 -5 9 -7 -5 -6 -33z"/>
<path d="M4030 1095 c-11 -13 -15 -13 -22 -3 -7 10 -8 10 -5 -2 2 -8 10 -14
16 -12 6 1 11 -2 11 -8 0 -5 10 -15 23 -21 21 -12 21 -11 7 6 -14 17 -13 18 5
12 18 -6 18 -5 4 5 -9 7 -16 17 -17 21 -1 17 -9 17 -22 2z m17 -10 c0 -8 -4
-12 -9 -9 -5 3 -6 10 -3 15 9 13 12 11 12 -6z"/>
<path d="M4085 1010 c10 -11 20 -20 23 -20 3 0 -3 9 -13 20 -10 11 -20 20 -23
20 -3 0 3 -9 13 -20z"/>
<path d="M4110 1014 c8 -10 15 -20 16 -22 1 -2 4 1 7 5 3 5 -4 15 -16 23 -21
12 -21 12 -7 -6z"/>
<path d="M4121 973 c-1 -12 38 -83 45 -83 3 0 0 8 -5 19 -6 10 -7 21 -4 25 3
3 1 6 -6 6 -8 0 -10 8 -6 23 4 15 3 18 -3 8 -8 -11 -10 -11 -15 0 -3 9 -6 10
-6 2z"/>
<path d="M4339 923 c-13 -16 -12 -17 4 -4 16 13 21 21 13 21 -2 0 -10 -8 -17
-17z"/>
<path d="M4339 878 c-7 -13 -17 -26 -23 -30 -8 -5 -7 -8 1 -8 7 0 18 10 24 23
7 12 17 25 23 29 8 5 7 8 -1 8 -7 0 -18 -10 -24 -22z"/>
<path d="M148 840 c-25 -26 -29 -36 -24 -63 7 -36 47 -77 77 -77 26 0 59 -35
59 -63 0 -31 -35 -67 -64 -67 -13 0 -35 9 -49 20 -30 24 -37 25 -37 6 0 -21
49 -56 77 -56 115 0 142 171 30 195 -43 10 -57 22 -57 54 0 52 54 70 83 29 13
-19 17 -21 29 -10 11 11 8 17 -15 38 -38 33 -72 31 -109 -6z"/>
<path d="M1820 826 c0 -49 16 -62 26 -22 8 32 2 58 -13 64 -9 2 -13 -10 -13
-42z"/>
<path d="M2224 857 c-2 -7 -3 -80 -2 -162 2 -108 6 -149 16 -153 9 -3 12 14
12 62 l0 66 38 0 c36 0 41 -4 80 -65 39 -61 62 -81 62 -52 0 6 -15 37 -34 68
l-34 57 26 26 c40 39 37 98 -6 137 -28 25 -40 29 -92 29 -40 0 -62 -4 -66 -13z
m134 -33 c16 -11 22 -25 22 -54 0 -49 -27 -70 -87 -70 l-43 0 0 70 0 70 43 0
c23 0 53 -7 65 -16z"/>
<path d="M2957 863 c-4 -3 -7 -26 -7 -50 0 -32 -4 -43 -15 -43 -8 0 -15 -7
-15 -15 0 -8 6 -15 14 -15 10 0 15 -20 18 -81 3 -70 6 -83 27 -100 28 -23 71
-25 71 -5 0 8 -10 16 -22 18 -31 4 -48 43 -48 111 0 54 1 57 25 57 16 0 25 6
25 15 0 9 -9 15 -25 15 -22 0 -24 3 -21 37 5 53 -7 77 -27 56z"/>
<path d="M4179 861 c8 -5 10 -14 6 -21 -6 -9 -4 -11 5 -5 10 6 12 4 7 -9 -4
-10 -3 -15 4 -11 5 4 7 16 3 28 -6 20 -5 21 11 7 16 -13 18 -13 13 0 -2 8 -18
16 -34 17 -19 1 -24 -1 -15 -6z"/>
<path d="M4245 830 c-3 -6 1 -7 9 -4 18 7 21 14 7 14 -6 0 -13 -4 -16 -10z"/>
<path d="M4220 813 c0 -19 21 -27 33 -13 9 10 9 11 -2 5 -8 -4 -17 -2 -22 6
-6 9 -9 10 -9 2z"/>
<path d="M379 755 c-45 -24 -59 -70 -59 -193 0 -68 4 -113 11 -117 17 -11 24
4 24 58 0 46 2 52 20 49 11 -2 34 -6 51 -9 61 -10 124 47 124 112 0 85 -95
141 -171 100z m115 -46 c34 -40 33 -74 -3 -110 -36 -35 -70 -37 -106 -6 -39
33 -39 91 -1 123 38 34 78 31 110 -7z"/>
<path d="M639 755 c-27 -15 -59 -69 -59 -100 0 -32 33 -86 61 -100 36 -19 72
-19 109 0 27 14 30 14 30 0 0 -8 7 -15 15 -15 21 0 21 130 0 170 -28 54 -101
75 -156 45z m115 -46 c14 -17 26 -41 26 -54 0 -36 -46 -85 -80 -85 -45 0 -82
38 -82 85 0 79 86 113 136 54z"/>
<path d="M847 763 c-12 -11 -8 -211 4 -218 17 -11 21 1 24 76 2 66 4 74 30 97
23 20 35 23 67 18 29 -5 38 -3 38 8 0 27 -60 35 -106 14 -22 -10 -28 -10 -32
0 -4 13 -15 16 -25 5z"/>
<path d="M1040 654 c0 -88 3 -115 13 -112 7 3 14 33 17 82 4 68 8 80 30 98 18
15 34 19 62 15 42 -6 53 0 37 20 -15 17 -67 17 -101 -1 -23 -12 -27 -12 -32 0
-3 8 -10 14 -16 14 -6 0 -10 -43 -10 -116z"/>
<path d="M1284 751 c-29 -18 -54 -63 -54 -98 0 -29 31 -79 59 -96 55 -32 127
-13 156 43 55 106 -60 213 -161 151z m117 -40 c36 -36 37 -70 3 -110 -32 -38
-72 -41 -109 -8 -55 47 -20 147 51 147 15 0 38 -12 55 -29z"/>
<path d="M1496 761 c-9 -14 65 -222 78 -218 6 2 23 36 37 77 14 40 28 69 31
64 3 -5 15 -39 27 -76 13 -38 28 -68 35 -68 16 0 87 218 74 226 -15 9 -23 -5
-48 -79 -12 -38 -24 -66 -26 -64 -2 2 -15 35 -28 73 -13 39 -29 69 -36 69 -8
0 -24 -31 -38 -73 -13 -41 -28 -70 -32 -65 -4 4 -17 38 -30 76 -20 63 -32 78
-44 58z"/>
<path d="M1918 754 c-32 -17 -46 -57 -28 -79 6 -7 40 -23 76 -35 66 -22 80
-41 45 -60 -30 -15 -56 -12 -85 11 -25 19 -46 19 -46 -2 0 -17 64 -49 98 -49
24 0 42 9 63 29 44 44 30 70 -55 100 -36 13 -66 29 -66 35 0 38 62 48 103 16
30 -24 37 -25 37 -6 0 23 -50 56 -84 56 -17 -1 -43 -7 -58 -16z"/>
<path d="M2514 761 c-68 -29 -86 -126 -35 -183 26 -29 35 -33 80 -33 56 0 95
25 73 47 -9 9 -16 8 -30 -5 -27 -24 -69 -21 -97 8 -14 13 -25 29 -25 35 0 6
36 10 95 10 l95 0 0 30 c0 45 -45 90 -95 95 -22 3 -50 1 -61 -4z m100 -46 c41
-38 34 -45 -54 -45 -87 0 -95 6 -55 45 31 32 74 32 109 0z"/>
<path d="M2736 749 c-21 -16 -26 -28 -24 -52 3 -26 9 -34 43 -46 111 -40 110
-39 90 -61 -23 -26 -65 -26 -98 0 -30 24 -37 25 -37 6 0 -22 49 -56 82 -56 65
0 119 58 88 95 -6 7 -40 23 -76 35 -66 22 -80 41 -45 60 30 15 56 12 85 -11
25 -19 46 -19 46 2 0 16 -64 49 -96 49 -17 0 -43 -10 -58 -21z"/>
<path d="M728 483 c7 -3 16 -2 19 1 4 3 -2 6 -13 5 -11 0 -14 -3 -6 -6z"/>
<path d="M883 483 c9 -2 25 -2 35 0 9 3 1 5 -18 5 -19 0 -27 -2 -17 -5z"/>
<path d="M1018 483 c6 -2 18 -2 25 0 6 3 1 5 -13 5 -14 0 -19 -2 -12 -5z"/>
<path d="M1258 483 c6 -2 18 -2 25 0 6 3 1 5 -13 5 -14 0 -19 -2 -12 -5z"/>
<path d="M1468 483 c6 -2 18 -2 25 0 6 3 1 5 -13 5 -14 0 -19 -2 -12 -5z"/>
<path d="M1830 486 c0 -2 13 -6 29 -8 17 -2 28 -1 25 4 -5 8 -54 12 -54 4z"/>
<path d="M2038 483 c7 -3 16 -2 19 1 4 3 -2 6 -13 5 -11 0 -14 -3 -6 -6z"/>
<path d="M2208 483 c6 -2 18 -2 25 0 6 3 1 5 -13 5 -14 0 -19 -2 -12 -5z"/>
<path d="M2278 483 c6 -2 18 -2 25 0 6 3 1 5 -13 5 -14 0 -19 -2 -12 -5z"/>
<path d="M2508 483 c6 -2 18 -2 25 0 6 3 1 5 -13 5 -14 0 -19 -2 -12 -5z"/>
<path d="M2888 483 c7 -3 16 -2 19 1 4 3 -2 6 -13 5 -11 0 -14 -3 -6 -6z"/>
<path d="M2130 465 c-7 -9 -11 -17 -9 -20 3 -2 10 5 17 15 14 24 10 26 -8 5z"/>
<path d="M1340 466 c0 -2 8 -10 18 -17 15 -13 16 -12 3 4 -13 16 -21 21 -21
13z"/>
<path d="M697 449 c7 -7 15 -10 18 -7 3 3 -2 9 -12 12 -14 6 -15 5 -6 -5z"/>
<path d="M1855 450 l-30 -8 27 -1 c15 0 30 4 33 9 3 6 5 9 3 9 -2 -1 -16 -5
-33 -9z"/>
<path d="M613 443 c9 -2 25 -2 35 0 9 3 1 5 -18 5 -19 0 -27 -2 -17 -5z"/>
<path d="M898 443 c7 -3 16 -2 19 1 4 3 -2 6 -13 5 -11 0 -14 -3 -6 -6z"/>
<path d="M1003 443 c9 -2 23 -2 30 0 6 3 -1 5 -18 5 -16 0 -22 -2 -12 -5z"/>
<path d="M1183 443 c9 -2 23 -2 30 0 6 3 -1 5 -18 5 -16 0 -22 -2 -12 -5z"/>
<path d="M1258 443 c6 -2 18 -2 25 0 6 3 1 5 -13 5 -14 0 -19 -2 -12 -5z"/>
<path d="M1490 446 c0 -2 7 -7 16 -10 8 -3 12 -2 9 4 -6 10 -25 14 -25 6z"/>
<path d="M2418 443 c7 -3 16 -2 19 1 4 3 -2 6 -13 5 -11 0 -14 -3 -6 -6z"/>
<path d="M2498 443 c6 -2 18 -2 25 0 6 3 1 5 -13 5 -14 0 -19 -2 -12 -5z"/>
<path d="M1573 433 c9 -2 23 -2 30 0 6 3 -1 5 -18 5 -16 0 -22 -2 -12 -5z"/>
<path d="M1916 432 c-3 -5 8 -6 25 -4 16 2 29 6 29 8 0 8 -49 4 -54 -4z"/>
<path d="M1485 410 l-30 -8 27 -1 c15 0 30 4 33 9 3 6 5 9 3 9 -2 -1 -16 -5
-33 -9z"/>
<path d="M2578 408 c6 -6 18 -8 28 -6 14 3 12 5 -9 10 -19 3 -25 2 -19 -4z"/>
<path d="M2685 410 c-16 -7 -17 -9 -3 -9 9 -1 20 4 23 9 7 11 7 11 -20 0z"/>
<path d="M713 403 c9 -2 23 -2 30 0 6 3 -1 5 -18 5 -16 0 -22 -2 -12 -5z"/>
<path d="M883 403 c9 -2 25 -2 35 0 9 3 1 5 -18 5 -19 0 -27 -2 -17 -5z"/>
<path d="M1028 403 c7 -3 16 -2 19 1 4 3 -2 6 -13 5 -11 0 -14 -3 -6 -6z"/>
<path d="M1198 403 c7 -3 16 -2 19 1 4 3 -2 6 -13 5 -11 0 -14 -3 -6 -6z"/>
<path d="M1678 403 c7 -3 16 -2 19 1 4 3 -2 6 -13 5 -11 0 -14 -3 -6 -6z"/>
<path d="M2038 403 c7 -3 16 -2 19 1 4 3 -2 6 -13 5 -11 0 -14 -3 -6 -6z"/>
<path d="M2218 403 c7 -3 16 -2 19 1 4 3 -2 6 -13 5 -11 0 -14 -3 -6 -6z"/>
<path d="M2428 403 c7 -3 16 -2 19 1 4 3 -2 6 -13 5 -11 0 -14 -3 -6 -6z"/>
<path d="M2498 403 c7 -3 16 -2 19 1 4 3 -2 6 -13 5 -11 0 -14 -3 -6 -6z"/>
<path d="M2888 403 c7 -3 16 -2 19 1 4 3 -2 6 -13 5 -11 0 -14 -3 -6 -6z"/>
</g>
</svg>
